<svg xmlns="http://www.w3.org/2000/svg" width="115" height="48" fill="none" viewBox="0 0 115 48">
    <path fill="#FFFFFF" d="M4.93 40.787c-1.608-.478-2.305-.796-2.305-1.697 0-.796 1.072-1.114 1.983-1.114.804 0 1.661.265 2.25.636.162.106.322.106.483.053.16-.053.322-.159.375-.318l.268-.53c.107-.266.054-.584-.214-.743-.858-.53-2.036-.902-3.162-.902C2.304 36.172.75 37.34.75 39.09c0 2.28 1.929 2.81 3.483 3.288 1.608.477 2.304.795 2.304 1.75s-1.125 1.326-2.197 1.326c-1.018 0-2.143-.53-2.786-1.167-.054-.053-.215-.106-.429-.106-.16 0-.322.106-.429.265l-.321.53c-.161.213-.107.531.107.69C1.5 46.621 3 47.257 4.394 47.257c2.411 0 4.019-1.22 4.019-3.076.054-2.334-1.876-2.917-3.483-3.394zM12.968 42.696l1.715-3.766 1.715 3.766h-3.43zm2.572-6.046c-.107-.212-.321-.319-.536-.319h-.643c-.214 0-.428.16-.536.319l-4.5 9.812c-.108.159-.055.371.053.53.107.16.268.266.482.266h.643c.214 0 .429-.107.536-.319l1.125-2.44h5.037l1.126 2.44c.107.212.321.319.536.319h.643c.214 0 .375-.107.482-.266.107-.159.107-.371.054-.53L15.54 36.65zM23.043 36.278h-.59c-.321 0-.59.266-.59.584v9.812c0 .318.269.584.59.584h.59c.321 0 .59-.266.59-.584v-9.812c0-.318-.269-.584-.59-.584zM35.368 36.278h-.536c-.322 0-.59.266-.59.584v7.16l-5.573-7.478c-.107-.16-.268-.212-.482-.212h-.697c-.321 0-.59.265-.59.583v9.812c0 .318.269.584.59.584h.59c.321 0 .59-.266.59-.584v-7.213l5.519 7.478c.107.16.268.212.482.212h.697c.321 0 .59-.265.59-.583v-9.76c0-.317-.269-.583-.59-.583zM45.603 36.278h-7.288c-.322 0-.59.266-.59.584v.583c0 .319.268.584.59.584h2.733v8.645c0 .318.268.584.59.584h.589c.322 0 .59-.266.59-.584v-8.645h2.732c.322 0 .59-.266.59-.584v-.583c.053-.318-.214-.584-.536-.584zM49.944 41.635h-3.162c-.322 0-.59.266-.59.584v.477c0 .318.268.584.59.584h3.162c.321 0 .589-.266.589-.584v-.477c0-.318-.268-.584-.59-.584zM62.269 41.264H59.965c-.322 0-.59.265-.59.583v.584c0 .318.268.583.59.583h1.179v1.804c-.697.477-1.5.742-2.358.742-2.197 0-3.966-1.697-3.966-3.766 0-2.068 1.769-3.765 3.966-3.765 1.018 0 2.036.371 2.733 1.007.107.106.268.16.428.16.161 0 .322-.106.43-.213l.374-.424c.215-.265.161-.583-.053-.795-1.072-.902-2.465-1.433-3.859-1.433-3.161 0-5.733 2.44-5.733 5.463 0 3.024 2.572 5.517 5.68 5.517 1.447 0 2.84-.53 3.912-1.433.107-.106.214-.265.214-.424v-3.553c-.053-.372-.321-.637-.643-.637zM70.575 45.56c-2.143 0-3.912-1.697-3.912-3.766 0-2.068 1.769-3.765 3.912-3.765 2.144 0 3.912 1.697 3.912 3.765 0 2.069-1.768 3.766-3.912 3.766zm0-9.282c-3.162 0-5.734 2.44-5.734 5.463 0 3.024 2.573 5.517 5.734 5.517 3.162 0 5.734-2.493 5.734-5.517-.053-3.023-2.572-5.463-5.734-5.463zM80.06 42.484h2.84c.911 0 2.412.212 2.412 1.485 0 1.273-1.34 1.538-2.412 1.538h-2.84v-3.023zm2.84-1.75h-2.84v-2.705h2.84c.858 0 1.93.212 1.93 1.326 0 .901-.644 1.379-1.93 1.379zm2.733.742c.59-.53.911-1.273.911-2.174 0-1.857-1.393-3.024-3.697-3.024h-4.073c-.322 0-.59.266-.59.584v9.812c0 .318.269.584.59.584h4.073c2.572 0 4.126-1.22 4.126-3.236.107-1.114-.429-2.015-1.34-2.546zM91.689 42.696l1.715-3.766 1.714 3.766h-3.43zm2.572-6.046c-.107-.212-.322-.319-.536-.319h-.643c-.214 0-.429.16-.536.319l-4.501 9.812c-.107.159-.054.371.053.53.108.16.268.266.483.266h.643c.214 0 .428-.107.536-.319l1.125-2.44h5.037l1.126 2.44c.107.212.321.319.535.319h.644c.214 0 .375-.107.482-.266.107-.159.107-.371.053-.53l-4.501-9.812zM101.763 36.278h-.589c-.322 0-.59.266-.59.584v9.812c0 .318.268.584.59.584h.589c.322 0 .59-.266.59-.584v-9.812c0-.318-.268-.584-.59-.584zM114.088 36.278h-.589c-.322 0-.59.266-.59.584v7.16l-5.573-7.478c-.107-.16-.268-.212-.482-.212h-.697c-.321 0-.589.265-.589.583v9.812c0 .318.268.584.589.584h.59c.321 0 .589-.266.589-.584v-7.213l5.52 7.478c.107.16.268.212.482.212h.697c.321 0 .589-.265.589-.583v-9.76c.054-.317-.214-.583-.536-.583z"/>
    <path fill="url(#paint0_linear)" d="M62.805 19.571l1.768 1.326v9.653h-1.768V19.571zM69.825.265l-8.52 8.592c-.162.16-.269.372-.269.637v6.577l-3.483-2.6c-.322-.211-.804-.211-1.072 0l-7.984 6.312c-.215.16-.322.425-.322.69V30.55h-1.822v-5.569c0-1.962-1.34-4.03-3.858-4.03-2.519 0-3.859 2.068-3.859 4.03v5.516h-1.822v-3.765c0-1.539-1.071-3.13-3-3.13-1.983 0-3.002 1.644-3.002 3.13v3.765h-1.875v-.106-2.121c0-1.273-1.233-2.44-2.626-2.44-1.393 0-2.626 1.114-2.626 2.44v2.28h-7.93c-.483 0-.912.372-.912.902 0 .212.107.477.268.636.161.16.375.266.643.266h8.842c.215 0 .483-.106.643-.266.161-.159.268-.37.268-.636v-3.023c0-.319.375-.796.858-.796.482 0 .857.425.857.849v2.97c0 .477.429.902.911.902h3.59c.483 0 .912-.372.912-.902v-4.668c0-.477.267-1.378 1.232-1.378s1.233.901 1.233 1.379v4.667c0 .477.375.902.91.902h3.591c.214 0 .482-.106.643-.266.16-.159.268-.37.268-.636v-6.418c0-.795.429-2.28 2.09-2.28 1.5 0 2.09 1.326 2.09 2.227v6.47c0 .478.375.903.91.903h3.591c.483 0 .911-.372.911-.902V20.897l.054-.053 7.02-5.569 4.019 2.97v13.207c0 .477.375.902.91.902h3.591c.483 0 .911-.372.911-.902v-10.98c0-.264-.16-.53-.375-.689l-3.215-2.386V9.812l.053-.053 6.699-6.736v28.429c0 .477.375.902.911.902h3.59c.483 0 .911-.372.911-.902v-18.51h1.34l.054.053 4.555 4.243v14.214c0 .477.375.902.91.902h3.645c.482 0 .91-.372.91-.902v-4.296l4.984 4.88c.161.158.376.264.643.264h7.396c.482 0 .911-.37.911-.901 0-.477-.376-.902-.911-.902h-7.074l-.054-.053-6.216-6.046c-.268-.265-.643-.318-.964-.212-.322.159-.536.477-.536.795v5.516h-1.822v-13.63c0-.266-.107-.478-.268-.637l-5.145-4.827c-.16-.159-.375-.265-.59-.265H74.38c-.483 0-.911.371-.911.902v18.51h-1.822V.85c0-.372-.215-.69-.536-.796C71.004 0 70.896 0 70.789 0c-.59 0-.804.106-.964.265z"/>
    <defs>
        <linearGradient id="paint0_linear" x1="14.813" x2="100.253" y1="16.154" y2="16.154" gradientUnits="userSpaceOnUse">
            <stop stop-color="#43B0B1"/>
            <stop offset=".1" stop-color="#43B0B1"/>
            <stop offset=".3" stop-color="#0096D5"/>
            <stop offset=".42" stop-color="#0E4E95"/>
            <stop offset=".55" stop-color="#EC1846"/>
            <stop offset=".84" stop-color="#F26F21"/>
            <stop offset="1" stop-color="#F26F21"/>
        </linearGradient>
    </defs>
</svg>